<svg id="Calque_1" data-name="Calque 1" xmlns="http://www.w3.org/2000/svg" xmlns:xlink="http://www.w3.org/1999/xlink" viewBox="0 0 129 19"><defs><style>.cls-1{fill:url(#Dégradé_sans_nom_3);}.cls-2{fill:url(#Dégradé_sans_nom_3-2);}.cls-3{fill:url(#Dégradé_sans_nom_3-3);}.cls-4{fill:url(#Dégradé_sans_nom_3-4);}.cls-5{fill:url(#Dégradé_sans_nom_3-5);}.cls-6{fill:url(#Dégradé_sans_nom_3-6);}.cls-7{fill:url(#Dégradé_sans_nom_3-7);}.cls-8{fill:url(#Dégradé_sans_nom_3-8);}.cls-9{fill:url(#Dégradé_sans_nom_3-9);}.cls-10{fill:#fff;}</style><linearGradient id="Dégradé_sans_nom_3" x1="3.99" y1="9.92" x2="73.32" y2="11.92" gradientUnits="userSpaceOnUse"><stop offset="0" stop-color="#87416a"/><stop offset="0.26" stop-color="#a45166"/><stop offset="0.53" stop-color="#bb5e63"/><stop offset="0.78" stop-color="#c96561"/><stop offset="1" stop-color="#ce6860"/></linearGradient><linearGradient id="Dégradé_sans_nom_3-2" x1="3.94" y1="11.73" x2="73.27" y2="13.73" xlink:href="#Dégradé_sans_nom_3"/><linearGradient id="Dégradé_sans_nom_3-3" x1="3.96" y1="10.85" x2="73.29" y2="12.85" xlink:href="#Dégradé_sans_nom_3"/><linearGradient id="Dégradé_sans_nom_3-4" x1="4.04" y1="8.13" x2="73.37" y2="10.13" xlink:href="#Dégradé_sans_nom_3"/><linearGradient id="Dégradé_sans_nom_3-5" x1="4.17" y1="3.52" x2="73.51" y2="5.52" xlink:href="#Dégradé_sans_nom_3"/><linearGradient id="Dégradé_sans_nom_3-6" x1="3.96" y1="10.87" x2="73.29" y2="12.87" xlink:href="#Dégradé_sans_nom_3"/><linearGradient id="Dégradé_sans_nom_3-7" x1="4.05" y1="7.64" x2="73.39" y2="9.64" xlink:href="#Dégradé_sans_nom_3"/><linearGradient id="Dégradé_sans_nom_3-8" x1="4.06" y1="7.48" x2="73.39" y2="9.48" xlink:href="#Dégradé_sans_nom_3"/><linearGradient id="Dégradé_sans_nom_3-9" x1="3.98" y1="10.32" x2="73.31" y2="12.32" xlink:href="#Dégradé_sans_nom_3"/></defs><title>Logo W Gradient 2</title><path class="cls-1" d="M17.41,15.72h-.14l-.31,0-.39-.09a1.49,1.49,0,0,1-.39-.17,1.08,1.08,0,0,1-.31-.29.75.75,0,0,1-.14-.43l-.51-9.36a.68.68,0,0,1,.18-.5,1.34,1.34,0,0,1,.41-.29,1.81,1.81,0,0,1,.41-.14l.21,0s0,0,.06,0a.09.09,0,0,0,0,0V3.93a.14.14,0,0,0,0,0s0,0-.06,0H13.35a.25.25,0,0,0-.18.09,1.19,1.19,0,0,0-.18.26L9.22,12.57a.32.32,0,0,1-.07.11.19.19,0,0,1-.14,0q-.1,0-.16-.15L5,4.05a.54.54,0,0,0-.11-.13.35.35,0,0,0-.16-.07H1.64s-.06,0-.06,0a.14.14,0,0,0,0,0v.39a.06.06,0,0,0,.07.07,1.13,1.13,0,0,1,.29.05,1.58,1.58,0,0,1,.36.16,1.22,1.22,0,0,1,.31.26.53.53,0,0,1,.13.36v.33q0,1-.05,2t-.12,2c0,.69-.1,1.39-.15,2.1s-.09,1.45-.13,2.2q0,.39-.05.72a1.31,1.31,0,0,1-.19.58,1,1,0,0,1-.47.38,2.35,2.35,0,0,1-.9.14s0,0-.06,0a.09.09,0,0,0,0,0v.39a.06.06,0,0,0,.07.07H5s.05,0,.05-.07v-.39a.29.29,0,0,0,0,0s0,0,0,0a3.15,3.15,0,0,1-.54,0A2.16,2.16,0,0,1,4,15.55a1.16,1.16,0,0,1-.35-.22.57.57,0,0,1-.18-.3v-.36c0-.25,0-.56,0-.95s0-.8.07-1.24.06-.91.09-1.38.06-.92.09-1.35.05-.81.07-1.15,0-.6,0-.77,0-.11.06-.11a.05.05,0,0,1,0,0l0,.09,3.74,8.25a.23.23,0,0,0,.21.14l.47,0a.87.87,0,0,0,.26,0,.21.21,0,0,0,.12-.12l3.85-8.33q0-.08.07-.08s0,0,0,.09L13.2,15a.53.53,0,0,1-.17.41,1.09,1.09,0,0,1-.41.23,2.29,2.29,0,0,1-.51.1l-.48,0a.06.06,0,0,0-.07.07v.39a.06.06,0,0,0,.07.07h5.78s0,0,.06,0a.09.09,0,0,0,0,0v-.39a.09.09,0,0,0,0,0S17.44,15.72,17.41,15.72Z"/><path class="cls-2" d="M26.48,14.43a.21.21,0,0,0-.12.06l-.17.13a1.18,1.18,0,0,1-.23.13.69.69,0,0,1-.29.06.58.58,0,0,1-.44-.18.57.57,0,0,1-.17-.41V10a1.77,1.77,0,0,0-.18-.79,2,2,0,0,0-.54-.66,2.64,2.64,0,0,0-.85-.45A3.67,3.67,0,0,0,22.35,8,4.23,4.23,0,0,0,21,8.19a4.46,4.46,0,0,0-1.18.6,3.17,3.17,0,0,0-.82.86,1.83,1.83,0,0,0-.31,1,.92.92,0,0,0,0,.2.11.11,0,0,0,.12.1l.22-.06.38-.11.45-.13.44-.13.33-.12.14-.07v-.05l0-.1s0-.07,0-.11a.72.72,0,0,1,0-.08,1.36,1.36,0,0,1,.09-.52,1.23,1.23,0,0,1,.25-.4,1.05,1.05,0,0,1,.38-.25,1.27,1.27,0,0,1,.47-.09,1.31,1.31,0,0,1,.54.11,1.19,1.19,0,0,1,.4.29,1.22,1.22,0,0,1,.25.43,1.71,1.71,0,0,1,.08.54v1.53a.37.37,0,0,1,0,.11s-.07.09-.17.14l-.5.25a3.85,3.85,0,0,1-.71.25q-.82.21-1.44.43a5.22,5.22,0,0,0-1,.48,2,2,0,0,0-.64.61,1.5,1.5,0,0,0-.21.82A1.64,1.64,0,0,0,19,16a2.42,2.42,0,0,0,1.63.48,2.84,2.84,0,0,0,.79-.11,2.31,2.31,0,0,0,.69-.32l1-.8s0,0,0,.08l.08.23c0,.09.07.2.12.3a1.59,1.59,0,0,0,.17.3,1,1,0,0,0,.24.24.52.52,0,0,0,.31.1,1,1,0,0,0,.41-.1,3.19,3.19,0,0,0,.49-.28q.27-.18.61-.44l.76-.58a.39.39,0,0,0,.14-.22,1.26,1.26,0,0,0,0-.3.67.67,0,0,0,0-.1S26.53,14.43,26.48,14.43Zm-3.29-.26a.59.59,0,0,1-.18.4,1.94,1.94,0,0,1-.44.35,2.68,2.68,0,0,1-.53.25,1.45,1.45,0,0,1-.46.09,2.42,2.42,0,0,1-.39,0,1.09,1.09,0,0,1-.34-.11.62.62,0,0,1-.24-.23.72.72,0,0,1-.09-.39,1.42,1.42,0,0,1,0-.35.75.75,0,0,1,.11-.24.79.79,0,0,1,.17-.18l.22-.16,2-.95h0s.07,0,.07.1Z"/><path class="cls-3" d="M32.76,8.83l0-.3a.91.91,0,0,0,0-.18.3.3,0,0,0-.08-.13.3.3,0,0,0-.19,0H30.18c-.06,0-.1,0-.12-.05A.24.24,0,0,1,30,8l.1-.34.1-.33L30.31,7a1,1,0,0,0,0-.19s0-.06-.07-.09a.28.28,0,0,0-.12,0,.85.85,0,0,0-.47.15,2.64,2.64,0,0,0-.43.33,3.6,3.6,0,0,0-.35.38l-.24.29-.34.31-.4.33-.41.32-.38.27a.13.13,0,0,0,0,.07.31.31,0,0,0,0,.1.21.21,0,0,0,.08.13.28.28,0,0,0,.19.06H28v4.91a1.89,1.89,0,0,0,.17.78,2.26,2.26,0,0,0,2.07,1.32,1.84,1.84,0,0,0,.65-.12,2.8,2.8,0,0,0,.58-.3,3.52,3.52,0,0,0,.48-.39,4.73,4.73,0,0,0,.37-.4l.24-.32.1-.15,0-.1a.46.46,0,0,0,0-.18.74.74,0,0,0,0-.15c0-.06-.06-.1-.14-.1a.48.48,0,0,0-.32.12l-.33.26a2.44,2.44,0,0,1-.44.26,1.59,1.59,0,0,1-.66.12.62.62,0,0,1-.28-.07.73.73,0,0,1-.25-.21,1.14,1.14,0,0,1-.18-.35,1.56,1.56,0,0,1-.07-.49V9.55a.23.23,0,0,1,0-.06s0,0,0,0h2.65s.07,0,.07-.05,0-.16,0-.27S32.77,8.94,32.76,8.83Z"/><path class="cls-4" d="M43.89,15.72a1.26,1.26,0,0,0-.33-.08,1.57,1.57,0,0,1-.42-.12,1,1,0,0,1-.37-.29.92.92,0,0,1-.16-.58V11.25a4.09,4.09,0,0,0-.26-1.58,2.5,2.5,0,0,0-.68-1,2.33,2.33,0,0,0-.95-.47,4.65,4.65,0,0,0-1.08-.13,3.34,3.34,0,0,0-.92.11,2.84,2.84,0,0,0-.71.31,3.48,3.48,0,0,0-.58.46c-.18.17-.35.36-.52.55l-.08.08a.11.11,0,0,1-.09,0s0,0-.05-.09,0-.1,0-.12V2q0-.21-.15-.21l-.06,0-.08,0L33.5,3.21a.28.28,0,0,0-.11.09.17.17,0,0,0,0,.09.18.18,0,0,0,0,.13l.08,0,.39.09.38.1a.74.74,0,0,1,.29.18.46.46,0,0,1,.11.33V14.64a.92.92,0,0,1-.16.58,1,1,0,0,1-.37.29,1.57,1.57,0,0,1-.42.12,1.26,1.26,0,0,0-.33.08s0,.05-.06.12a.66.66,0,0,0,0,.14.9.9,0,0,0,0,.15q0,.1.07.11H38s.06,0,.07-.11a.9.9,0,0,0,0-.15.66.66,0,0,0,0-.14c0-.07,0-.11-.06-.12a1.26,1.26,0,0,0-.33-.08,1.57,1.57,0,0,1-.42-.12,1,1,0,0,1-.37-.29.92.92,0,0,1-.16-.58V11a1.25,1.25,0,0,1,.23-.71,2.54,2.54,0,0,1,.57-.6,3.14,3.14,0,0,1,.73-.41,1.92,1.92,0,0,1,.7-.15,2,2,0,0,1,1,.19,1.14,1.14,0,0,1,.49.52,2.18,2.18,0,0,1,.18.78q0,.45,0,1v3a.92.92,0,0,1-.16.58,1,1,0,0,1-.37.29,1.57,1.57,0,0,1-.42.12,1.26,1.26,0,0,0-.33.08s0,.05-.06.12a.66.66,0,0,0,0,.14.9.9,0,0,0,0,.15q0,.1.07.11h4.59s.06,0,.07-.11A.9.9,0,0,0,44,16a.66.66,0,0,0,0-.14C43.93,15.77,43.91,15.73,43.89,15.72Z"/><path class="cls-5" d="M47,6a1.22,1.22,0,0,0,.9-.33,1.19,1.19,0,0,0,.33-.89,1.23,1.23,0,1,0-2.46,0,1.19,1.19,0,0,0,.33.89A1.22,1.22,0,0,0,47,6Z"/><path class="cls-6" d="M49.44,15.72a1.26,1.26,0,0,0-.33-.08,1.57,1.57,0,0,1-.42-.12,1,1,0,0,1-.37-.29.92.92,0,0,1-.16-.58V8.16q0-.21-.15-.21L48,8l-.08,0L45,9.37a.28.28,0,0,0-.11.09.17.17,0,0,0,0,.09.19.19,0,0,0,0,.13l.08,0,.39.09a2.6,2.6,0,0,1,.38.1.72.72,0,0,1,.29.18.45.45,0,0,1,.11.33v4.22a.92.92,0,0,1-.16.58,1,1,0,0,1-.37.29,1.57,1.57,0,0,1-.42.12,1.26,1.26,0,0,0-.33.08s0,0-.06.11a.61.61,0,0,0,0,.14,1,1,0,0,0,0,.15c0,.07,0,.11.07.12h4.59s.06-.05.07-.12a1,1,0,0,0,0-.15.61.61,0,0,0,0-.14Q49.48,15.74,49.44,15.72Z"/><path class="cls-7" d="M54.82,15.73a1.23,1.23,0,0,0-.33-.08,1.68,1.68,0,0,1-.42-.12,1,1,0,0,1-.37-.29.92.92,0,0,1-.16-.58V2a.54.54,0,0,0,0-.16.08.08,0,0,0-.09,0l-.1,0-.08,0L50.36,3.22a.22.22,0,0,0-.11.12.39.39,0,0,0,0,.12q0,.2.11.25l.39.09.38.1a.74.74,0,0,1,.29.18.46.46,0,0,1,.11.33V14.65a.92.92,0,0,1-.16.58,1,1,0,0,1-.37.29,1.68,1.68,0,0,1-.42.12,1.23,1.23,0,0,0-.33.08s0,0-.06.11a.61.61,0,0,0,0,.14.9.9,0,0,0,0,.15q0,.1.07.11h4.59s.06,0,.07-.11a.9.9,0,0,0,0-.15.61.61,0,0,0,0-.14Q54.86,15.75,54.82,15.73Z"/><path class="cls-8" d="M65.24,14.92l-.51,0a.9.9,0,0,1-.59-.17.69.69,0,0,1-.2-.55V2q0-.21-.15-.21l-.06,0-.07,0L60.75,3.22a.28.28,0,0,0-.11.09.17.17,0,0,0,0,.09.18.18,0,0,0,0,.13l.08,0,.39.09a2.6,2.6,0,0,1,.38.1.72.72,0,0,1,.29.18.45.45,0,0,1,.11.33V8.41c0,.05,0,.08,0,.1l-.07,0a1.18,1.18,0,0,1-.33,0l-.3-.09-.33-.09a1.72,1.72,0,0,0-.41,0,4.43,4.43,0,0,0-1.7.33,4.48,4.48,0,0,0-1.42.91,4.41,4.41,0,0,0-1,1.37A4,4,0,0,0,56,12.58,4.56,4.56,0,0,0,56.2,14a4,4,0,0,0,.68,1.25,3.3,3.3,0,0,0,1.07.87,3.07,3.07,0,0,0,1.42.33,3,3,0,0,0,.67-.07,3.26,3.26,0,0,0,.58-.19,5.08,5.08,0,0,0,.55-.29l.58-.34.08,0s.06,0,.06.09v.61a.75.75,0,0,0,0,.14s0,.08.07.08l.08,0,.09,0,3-1.25a.27.27,0,0,0,.11-.07.1.1,0,0,0,0,0,.58.58,0,0,0,0-.1S65.26,14.92,65.24,14.92Zm-3.34-.16q0,.13-.19.25a2.32,2.32,0,0,1-.44.2l-.5.14-.34.05a2.19,2.19,0,0,1-1.1-.26,2.26,2.26,0,0,1-.77-.71,3.14,3.14,0,0,1-.45-1A5.09,5.09,0,0,1,58,12.18,5,5,0,0,1,58.09,11a3.35,3.35,0,0,1,.41-1,2.27,2.27,0,0,1,.7-.73,2.12,2.12,0,0,1,2.26.1,1.24,1.24,0,0,1,.44,1Z"/><path class="cls-9" d="M68.11,11.44H73.3c.08,0,.13,0,.16-.15a.87.87,0,0,0,0-.27,2.18,2.18,0,0,0-.16-.79A4.42,4.42,0,0,0,73,9.47a4.16,4.16,0,0,0-.49-.63A1.91,1.91,0,0,0,72,8.46l-.35-.2a2.23,2.23,0,0,0-.37-.16A2.68,2.68,0,0,0,70.86,8a3.17,3.17,0,0,0-.54,0,4.33,4.33,0,0,0-1.79.35,3.75,3.75,0,0,0-1.33,1,4.42,4.42,0,0,0-.83,1.5,5.93,5.93,0,0,0-.29,1.89,4,4,0,0,0,.25,1.38,3.66,3.66,0,0,0,3.53,2.41,3.15,3.15,0,0,0,.95-.16,5.63,5.63,0,0,0,1-.42,6.41,6.41,0,0,0,.9-.59,4.74,4.74,0,0,0,.71-.67.1.1,0,0,0,0-.06.08.08,0,0,0,0-.05l-.12-.15-.16-.16a.12.12,0,0,0-.07,0l-.07,0-.48.37a4.23,4.23,0,0,1-.54.33,3.48,3.48,0,0,1-.61.24,2.38,2.38,0,0,1-.66.09,2.53,2.53,0,0,1-1.91-.85,3.1,3.1,0,0,1-.6-1A3.91,3.91,0,0,1,68,12a2,2,0,0,1,0-.39C68,11.5,68.05,11.44,68.11,11.44ZM68.32,10a1.9,1.9,0,0,1,.33-.53,2,2,0,0,1,.54-.44,1.48,1.48,0,0,1,.74-.18,1.51,1.51,0,0,1,.64.13,1.45,1.45,0,0,1,.49.36,1.69,1.69,0,0,1,.31.54,1.88,1.88,0,0,1,.11.65q0,.2-.23.2H68.37a.13.13,0,0,1-.11-.06.38.38,0,0,1,0-.21A1.28,1.28,0,0,1,68.32,10Z"/><path class="cls-10" d="M87.34,9a1,1,0,0,0,.39-.13.92.92,0,0,0,.32-.34,1.3,1.3,0,0,0,.14-.65.06.06,0,0,1,.07-.07h.34a.06.06,0,0,1,.07.07v3.53s0,0,0,.06h-.39s0,0-.06,0a.09.09,0,0,1,0,0,1.61,1.61,0,0,0-.14-.73,1,1,0,0,0-.32-.38.86.86,0,0,0-.38-.15l-.32,0H84.1a.19.19,0,0,0-.16.07.26.26,0,0,0-.05.17V14.6A.81.81,0,0,0,84,15a.91.91,0,0,0,.26.28,1.76,1.76,0,0,0,.38.21l.48.17.28.08.25,0s.06,0,.06,0v.38a.09.09,0,0,1,0,0s0,0-.06,0H80s0,0-.06,0a.09.09,0,0,1,0,0v-.34a.14.14,0,0,1,0,0s0,0,.06,0a1,1,0,0,0,.25,0l.23-.07a1.76,1.76,0,0,0,.62-.44,1,1,0,0,0,.24-.67V5.18a.73.73,0,0,0-.18-.53,1.22,1.22,0,0,0-.42-.29,1.72,1.72,0,0,0-.44-.12l-.26,0h0a.06.06,0,0,1-.06,0,.12.12,0,0,1,0,0V3.93a.12.12,0,0,1,0,0,.06.06,0,0,1,.06,0h8.68l.16,0s.05.07.05.15V6.45q0,.11-.06.13l-.14,0h-.18a.38.38,0,0,1,0-.15c0-.1,0-.21-.08-.34a4.12,4.12,0,0,0-.13-.39,1.06,1.06,0,0,0-.17-.31,2,2,0,0,0-.24-.22A1,1,0,0,0,87.64,5,1.27,1.27,0,0,0,87.32,5l-.45,0h-2.8a.16.16,0,0,0-.18.18V8.85q0,.2.21.2H87Z"/><path class="cls-10" d="M93.56,16.07a2.31,2.31,0,0,1-.69.32,2.84,2.84,0,0,1-.79.11A2.42,2.42,0,0,1,90.45,16a1.64,1.64,0,0,1-.56-1.31,1.5,1.5,0,0,1,.21-.82,2,2,0,0,1,.64-.61,5.22,5.22,0,0,1,1-.48q.62-.21,1.44-.43a3.85,3.85,0,0,0,.71-.25l.5-.25c.1-.05.16-.1.17-.14a.37.37,0,0,0,0-.11V10.1a1.71,1.71,0,0,0-.08-.54,1.22,1.22,0,0,0-.25-.43,1.19,1.19,0,0,0-.4-.29,1.31,1.31,0,0,0-.54-.11,1.27,1.27,0,0,0-.47.09,1.05,1.05,0,0,0-.38.25,1.23,1.23,0,0,0-.25.4,1.36,1.36,0,0,0-.09.52.72.72,0,0,0,0,.08s0,.07,0,.11l0,.1v.05L92,10.4l-.33.12-.44.13-.45.13-.38.11-.22.06a.11.11,0,0,1-.12-.1.92.92,0,0,1,0-.2,1.83,1.83,0,0,1,.31-1,3.17,3.17,0,0,1,.82-.86,4.46,4.46,0,0,1,1.18-.6A4.23,4.23,0,0,1,93.78,8a3.67,3.67,0,0,1,1.13.16,2.64,2.64,0,0,1,.85.45,2,2,0,0,1,.54.66,1.77,1.77,0,0,1,.18.79v4.19a.57.57,0,0,0,.17.41.58.58,0,0,0,.44.18.69.69,0,0,0,.29-.06,1.18,1.18,0,0,0,.23-.13l.17-.13a.21.21,0,0,1,.12-.06s.07,0,.08.06a.67.67,0,0,1,0,.1,1.26,1.26,0,0,1,0,.3.39.39,0,0,1-.14.22l-.76.58q-.33.26-.61.44a3.19,3.19,0,0,1-.49.28,1,1,0,0,1-.41.1.52.52,0,0,1-.31-.1,1,1,0,0,1-.24-.24,1.59,1.59,0,0,1-.17-.3c0-.11-.09-.21-.12-.3l-.08-.23q0-.09,0-.08ZM91.94,14.5a.72.72,0,0,0,.09.39.62.62,0,0,0,.24.23,1.09,1.09,0,0,0,.34.11,2.42,2.42,0,0,0,.39,0,1.45,1.45,0,0,0,.46-.09,2.68,2.68,0,0,0,.53-.25,1.94,1.94,0,0,0,.44-.35.59.59,0,0,0,.18-.4V12.72q0-.1-.07-.1h0l-2,.95-.22.16a.79.79,0,0,0-.17.18.75.75,0,0,0-.11.24A1.42,1.42,0,0,0,91.94,14.5Z"/><path class="cls-10" d="M98.83,16.25s-.06-.05-.07-.12a1,1,0,0,1,0-.15.61.61,0,0,1,0-.14q0-.1.06-.11a1.26,1.26,0,0,1,.33-.08,1.57,1.57,0,0,0,.42-.12,1,1,0,0,0,.37-.29.92.92,0,0,0,.16-.58V10.42a.45.45,0,0,0-.11-.33.72.72,0,0,0-.29-.18,2.6,2.6,0,0,0-.38-.1l-.39-.09-.08,0a.19.19,0,0,1,0-.13.17.17,0,0,1,0-.09A.28.28,0,0,1,99,9.37L101.86,8l.08,0,.06,0q.15,0,.15.21v6.49a.92.92,0,0,0,.16.58,1,1,0,0,0,.37.29,1.57,1.57,0,0,0,.42.12,1.26,1.26,0,0,1,.33.08s0,0,.06.11a.61.61,0,0,1,0,.14,1,1,0,0,1,0,.15c0,.07,0,.11-.07.12Zm.9-11.49a1.23,1.23,0,1,1,2.46,0,1.19,1.19,0,0,1-.33.89,1.38,1.38,0,0,1-1.79,0A1.19,1.19,0,0,1,99.73,4.76Z"/><path class="cls-10" d="M107.8,16.39l-.08-.17-2.38-6.46a2.11,2.11,0,0,0-.43-.71,1.6,1.6,0,0,0-.69-.43l-.15,0-.17,0a.34.34,0,0,1-.14-.06.17.17,0,0,1-.06-.14.31.31,0,0,1,0-.16.16.16,0,0,1,.15-.08h4.62s.06,0,.07.09a.83.83,0,0,1,0,.12.16.16,0,0,1-.1.16.81.81,0,0,1-.25,0H108a1,1,0,0,0-.32,0,.51.51,0,0,0-.25.15.5.5,0,0,0-.1.34.47.47,0,0,0,0,.11.57.57,0,0,1,0,.1l1.75,4.78.06.13a.12.12,0,0,0,.11.08.11.11,0,0,0,.07,0,.35.35,0,0,0,.07-.09l0-.1,0-.07.69-1.78.47-1.21.29-.76c.07-.19.12-.33.15-.43a1.62,1.62,0,0,0,.05-.22,1,1,0,0,0,0-.13.7.7,0,0,0-.19-.51,1.29,1.29,0,0,0-.47-.3l-.2,0-.23,0a.5.5,0,0,1-.19-.07.19.19,0,0,1-.08-.18.25.25,0,0,1,.21-.21h3.51a.08.08,0,0,1,.07.07.65.65,0,0,1,0,.15.19.19,0,0,1,0,.09.14.14,0,0,1-.08.05l-.18,0-.31.05a.63.63,0,0,0-.34.18,1.78,1.78,0,0,0-.26.34,3,3,0,0,0-.21.4l-.17.37-1,2.59-.68,1.77-.43,1.09-.23.58-.11.28-.08.16c0,.06-.07.1-.12.1h-1.41S107.83,16.45,107.8,16.39Z"/><path class="cls-10" d="M117.22,8l.08,0,.06,0q.15,0,.15.21V9.65a.43.43,0,0,0,0,.07s0,0,0,0a.09.09,0,0,0,.07,0l.05-.06L118,9.2a4.93,4.93,0,0,1,.42-.49,2.74,2.74,0,0,1,.46-.38.86.86,0,0,1,.47-.15,1.34,1.34,0,0,1,.41.09,4.5,4.5,0,0,1,.5.21,2.88,2.88,0,0,1,.41.25c.11.09.17.15.17.21a1.07,1.07,0,0,1-.08.29,3.47,3.47,0,0,1-.2.43,2.8,2.8,0,0,1-.26.39c-.09.11-.17.17-.25.17h0l-.32-.13-.33-.15-.34-.12a1.28,1.28,0,0,0-.35,0,1.13,1.13,0,0,0-.49.11,1.34,1.34,0,0,0-.39.28,1.4,1.4,0,0,0-.26.38,1,1,0,0,0-.1.4v3.71a.76.76,0,0,0,.11.43.88.88,0,0,0,.28.28,1.33,1.33,0,0,0,.38.17l.4.09.35.06a1,1,0,0,1,.24.06q.09,0,.09.25t-.09.27h-5.07q-.09,0-.09-.27t.09-.25a1.23,1.23,0,0,1,.33-.08,1.68,1.68,0,0,0,.42-.12,1,1,0,0,0,.37-.29.92.92,0,0,0,.16-.58V10.42a.45.45,0,0,0-.11-.33.72.72,0,0,0-.29-.18,2.6,2.6,0,0,0-.38-.1l-.39-.09-.08,0a.19.19,0,0,1,0-.13.17.17,0,0,1,0-.09.28.28,0,0,1,.11-.09Z"/><path class="cls-10" d="M121,12.69a5.93,5.93,0,0,1,.29-1.89,4.42,4.42,0,0,1,.83-1.5,3.75,3.75,0,0,1,1.33-1A4.33,4.33,0,0,1,125.28,8a3.17,3.17,0,0,1,.54,0,2.68,2.68,0,0,1,.44.11,2.23,2.23,0,0,1,.37.16l.35.2a1.91,1.91,0,0,1,.46.38,4.16,4.16,0,0,1,.49.63,4.42,4.42,0,0,1,.39.77,2.18,2.18,0,0,1,.16.79.87.87,0,0,1,0,.27c0,.1-.09.15-.16.15h-5.19c-.06,0-.1.05-.12.16a2,2,0,0,0,0,.39,3.91,3.91,0,0,0,.22,1.38,3.1,3.1,0,0,0,.6,1,2.53,2.53,0,0,0,1.91.85,2.38,2.38,0,0,0,.66-.09,3.48,3.48,0,0,0,.61-.24,4.23,4.23,0,0,0,.54-.33l.48-.37.07,0a.12.12,0,0,1,.07,0l.16.16.12.15a.08.08,0,0,1,0,.05.1.1,0,0,1,0,.06,4.74,4.74,0,0,1-.71.67,6.41,6.41,0,0,1-.9.59,5.63,5.63,0,0,1-1,.42,3.15,3.15,0,0,1-.95.16,3.76,3.76,0,0,1-1.61-.33,3.66,3.66,0,0,1-1.92-2.08A4,4,0,0,1,121,12.69Zm5.16-1.92q.23,0,.23-.2a1.88,1.88,0,0,0-.11-.65,1.69,1.69,0,0,0-.31-.54,1.45,1.45,0,0,0-.49-.36,1.51,1.51,0,0,0-.64-.13,1.48,1.48,0,0,0-.74.18,2,2,0,0,0-.54.44,1.9,1.9,0,0,0-.33.53,1.28,1.28,0,0,0-.11.47.38.38,0,0,0,0,.21.13.13,0,0,0,.11.06Z"/></svg>