<?xml version="1.0" encoding="UTF-8" standalone="no"?>
<svg
   xmlns:dc="http://purl.org/dc/elements/1.1/"
   xmlns:cc="http://creativecommons.org/ns#"
   xmlns:rdf="http://www.w3.org/1999/02/22-rdf-syntax-ns#"
   xmlns:svg="http://www.w3.org/2000/svg"
   xmlns="http://www.w3.org/2000/svg"
   xmlns:sodipodi="http://sodipodi.sourceforge.net/DTD/sodipodi-0.dtd"
   xmlns:inkscape="http://www.inkscape.org/namespaces/inkscape"
   id="Bold"
   enable-background="new 0 0 24 24"
   height="512"
   viewBox="0 0 24 24"
   width="512"
   version="1.1"
   sodipodi:docname="medium.svg"
   inkscape:version="0.92.4 (unknown)">
  <metadata
     id="metadata9">
    <rdf:RDF>
      <cc:Work
         rdf:about="">
        <dc:format>image/svg+xml</dc:format>
        <dc:type
           rdf:resource="http://purl.org/dc/dcmitype/StillImage" />
      </cc:Work>
    </rdf:RDF>
  </metadata>
  <defs
     id="defs7" />
  <sodipodi:namedview
     pagecolor="#ffffff"
     bordercolor="#666666"
     borderopacity="1"
     objecttolerance="10"
     gridtolerance="10"
     guidetolerance="10"
     inkscape:pageopacity="0"
     inkscape:pageshadow="2"
     inkscape:window-width="640"
     inkscape:window-height="480"
     id="namedview5"
     showgrid="false"
     inkscape:zoom="0.4609375"
     inkscape:cx="256"
     inkscape:cy="256"
     inkscape:window-x="80"
     inkscape:window-y="39"
     inkscape:window-maximized="0"
     inkscape:current-layer="Bold" />
  <path
     d="m22.085 4.733 1.915-1.832v-.401h-6.634l-4.728 11.768-5.379-11.768h-6.956v.401l2.237 2.693c.218.199.332.49.303.783v10.583c.069.381-.055.773-.323 1.05l-2.52 3.054v.396h7.145v-.401l-2.52-3.049c-.273-.278-.402-.663-.347-1.05v-9.154l6.272 13.659h.729l5.393-13.659v10.881c0 .287 0 .346-.188.534l-1.94 1.877v.402h9.412v-.401l-1.87-1.831c-.164-.124-.249-.332-.214-.534v-13.467c-.035-.203.049-.411.213-.534z"
     id="path2"
     style="fill:#ffffff" />
</svg>
